<svg xmlns="http://www.w3.org/2000/svg" xmlns:xlink="http://www.w3.org/1999/xlink" width="500" zoomAndPan="magnify" viewBox="0 0 375 374.999991" height="500" preserveAspectRatio="xMidYMid meet" version="1.0"><defs><g/><clipPath id="11c5fb20a0"><path d="M 6 32 L 372 32 L 372 350 L 6 350 Z M 6 32 " clip-rule="nonzero"/></clipPath><clipPath id="cc38903389"><path d="M -8.195312 39.148438 L 348.714844 0.0078125 L 384.898438 329.957031 L 27.988281 369.097656 Z M -8.195312 39.148438 " clip-rule="nonzero"/></clipPath><clipPath id="a7f6d7bce0"><path d="M -8.195312 39.148438 L 348.714844 0.0078125 L 384.898438 329.957031 L 27.988281 369.097656 Z M -8.195312 39.148438 " clip-rule="nonzero"/></clipPath></defs><g clip-path="url(#11c5fb20a0)"><g clip-path="url(#cc38903389)"><g clip-path="url(#a7f6d7bce0)"><path fill="#ffd400" d="M 60.5625 90.714844 C 58.347656 70.515625 59.300781 50.859375 63.472656 32.179688 C 23.664062 70.320312 1.339844 126.09375 7.839844 185.375 C 18.914062 286.367188 110.03125 359.472656 211.027344 348.398438 C 291.820312 339.539062 354.980469 279.285156 371.136719 203.746094 C 343 230.828125 305.902344 249.117188 264.1875 253.691406 C 162.753906 264.816406 71.636719 191.707031 60.5625 90.714844 Z M 60.5625 90.714844 " fill-opacity="1" fill-rule="nonzero"/></g></g></g><g fill="#fffefa" fill-opacity="1"><g transform="translate(81.7592, 45.852376)"><g><path d="M -1.234375 21.5625 C -1.253906 20.78125 -0.914062 20.148438 -0.21875 19.671875 C 0.46875 19.203125 1.265625 18.835938 2.171875 18.578125 C 3.085938 18.316406 4.007812 18.132812 4.9375 18.03125 C 5.863281 17.9375 6.582031 17.882812 7.09375 17.875 C 8.457031 17.820312 9.828125 17.851562 11.203125 17.96875 C 12.578125 18.082031 13.945312 18.222656 15.3125 18.390625 C 16.6875 18.554688 18.0625 18.691406 19.4375 18.796875 C 20.8125 18.910156 22.1875 18.945312 23.5625 18.90625 C 24.113281 18.882812 24.707031 18.84375 25.34375 18.78125 C 25.976562 18.71875 26.578125 18.597656 27.140625 18.421875 C 27.710938 18.242188 28.175781 17.960938 28.53125 17.578125 C 28.882812 17.203125 29.050781 16.71875 29.03125 16.125 C 29.019531 15.707031 28.675781 15.265625 28 14.796875 C 27.320312 14.328125 26.550781 13.890625 25.6875 13.484375 C 24.832031 13.078125 23.972656 12.738281 23.109375 12.46875 C 22.253906 12.195312 21.625 12.066406 21.21875 12.078125 C 20.21875 12.109375 19.203125 12.148438 18.171875 12.203125 C 17.140625 12.265625 16.101562 12.3125 15.0625 12.34375 L 11.09375 12.46875 C 10.269531 12.457031 9.421875 12.414062 8.546875 12.34375 C 7.679688 12.28125 6.835938 12.164062 6.015625 12 C 5.191406 11.894531 4.394531 11.71875 3.625 11.46875 C 2.863281 11.226562 2.1875 10.894531 1.59375 10.46875 C 1.007812 10.050781 0.523438 9.550781 0.140625 8.96875 C -0.234375 8.382812 -0.4375 7.679688 -0.46875 6.859375 C -0.5 5.953125 -0.226562 5.191406 0.34375 4.578125 C 0.925781 3.972656 1.675781 3.472656 2.59375 3.078125 C 3.519531 2.679688 4.5625 2.382812 5.71875 2.1875 C 6.882812 1.988281 8.023438 1.835938 9.140625 1.734375 C 10.253906 1.628906 11.28125 1.570312 12.21875 1.5625 C 13.15625 1.550781 13.898438 1.535156 14.453125 1.515625 L 17.65625 1.421875 C 19.394531 1.359375 21.109375 1.265625 22.796875 1.140625 C 24.484375 1.023438 26.171875 0.941406 27.859375 0.890625 C 28.773438 0.859375 29.941406 0.828125 31.359375 0.796875 C 32.773438 0.773438 34.160156 0.90625 35.515625 1.1875 C 36.867188 1.46875 38.035156 1.957031 39.015625 2.65625 C 40.003906 3.351562 40.523438 4.410156 40.578125 5.828125 C 40.597656 6.460938 40.410156 7.039062 40.015625 7.5625 C 39.617188 8.082031 39.128906 8.539062 38.546875 8.9375 C 37.960938 9.34375 37.332031 9.6875 36.65625 9.96875 C 35.976562 10.25 35.390625 10.460938 34.890625 10.609375 C 35.535156 11.046875 36.164062 11.5625 36.78125 12.15625 C 37.394531 12.75 37.941406 13.425781 38.421875 14.1875 C 38.910156 14.945312 39.304688 15.800781 39.609375 16.75 C 39.921875 17.695312 40.097656 18.789062 40.140625 20.03125 C 40.210938 22.351562 39.707031 24.179688 38.625 25.515625 C 37.550781 26.859375 36.191406 27.863281 34.546875 28.53125 C 32.898438 29.207031 31.117188 29.644531 29.203125 29.84375 C 27.285156 30.039062 25.550781 30.164062 24 30.21875 C 23.226562 30.238281 22.070312 30.207031 20.53125 30.125 C 19 30.039062 17.304688 29.878906 15.453125 29.640625 C 13.597656 29.398438 11.691406 29.054688 9.734375 28.609375 C 7.773438 28.171875 5.984375 27.632812 4.359375 27 C 2.742188 26.375 1.414062 25.609375 0.375 24.703125 C -0.65625 23.796875 -1.191406 22.75 -1.234375 21.5625 Z M -1.234375 21.5625 "/></g></g></g><g fill="#fffefa" fill-opacity="1"><g transform="translate(84.975046, 92.551912)"><g><path d="M -13.828125 22.1875 C -14.160156 21.144531 -14.375 19.90625 -14.46875 18.46875 C -14.570312 17.039062 -14.503906 15.640625 -14.265625 14.265625 C -14.023438 12.898438 -13.601562 11.675781 -13 10.59375 C -12.394531 9.507812 -11.523438 8.785156 -10.390625 8.421875 C -9.953125 8.285156 -9.476562 8.253906 -8.96875 8.328125 C -8.46875 8.410156 -7.992188 8.585938 -7.546875 8.859375 C -7.109375 9.128906 -6.71875 9.445312 -6.375 9.8125 C -6.039062 10.175781 -5.796875 10.601562 -5.640625 11.09375 C -5.484375 11.613281 -5.398438 12.148438 -5.390625 12.703125 C -5.390625 13.253906 -5.414062 13.820312 -5.46875 14.40625 C -5.5 15.050781 -5.515625 15.671875 -5.515625 16.265625 C -5.515625 16.859375 -5.414062 17.460938 -5.21875 18.078125 C -4.875 19.160156 -4.203125 19.984375 -3.203125 20.546875 C -2.203125 21.117188 -1.015625 21.5 0.359375 21.6875 C 1.734375 21.875 3.203125 21.90625 4.765625 21.78125 C 6.335938 21.664062 7.875 21.472656 9.375 21.203125 C 10.882812 20.941406 12.28125 20.648438 13.5625 20.328125 C 14.84375 20.015625 15.890625 19.753906 16.703125 19.546875 C 13.898438 18.765625 11.640625 17.816406 9.921875 16.703125 C 8.203125 15.597656 6.992188 13.960938 6.296875 11.796875 C 5.765625 10.140625 5.648438 8.578125 5.953125 7.109375 C 6.253906 5.648438 6.828125 4.304688 7.671875 3.078125 C 8.523438 1.847656 9.585938 0.71875 10.859375 -0.3125 C 12.140625 -1.34375 13.515625 -2.25 14.984375 -3.03125 C 16.460938 -3.820312 17.941406 -4.5 19.421875 -5.0625 C 20.898438 -5.632812 22.28125 -6.078125 23.5625 -6.390625 C 24.53125 -6.648438 25.816406 -6.925781 27.421875 -7.21875 C 29.035156 -7.519531 30.648438 -7.691406 32.265625 -7.734375 C 33.890625 -7.773438 35.335938 -7.566406 36.609375 -7.109375 C 37.878906 -6.648438 38.671875 -5.773438 38.984375 -4.484375 C 39.210938 -3.648438 39.070312 -2.863281 38.5625 -2.125 C 38.050781 -1.394531 37.347656 -0.703125 36.453125 -0.046875 C 35.554688 0.597656 34.53125 1.1875 33.375 1.71875 C 32.226562 2.25 31.078125 2.722656 29.921875 3.140625 C 28.765625 3.566406 27.691406 3.925781 26.703125 4.21875 C 25.722656 4.507812 24.972656 4.738281 24.453125 4.90625 C 23.710938 5.144531 22.976562 5.40625 22.25 5.6875 C 21.519531 5.96875 20.898438 6.328125 20.390625 6.765625 C 19.890625 7.210938 19.550781 7.765625 19.375 8.421875 C 19.207031 9.085938 19.285156 9.921875 19.609375 10.921875 C 19.960938 12.054688 20.53125 12.867188 21.3125 13.359375 C 22.101562 13.847656 22.972656 14.117188 23.921875 14.171875 C 24.878906 14.234375 25.859375 14.144531 26.859375 13.90625 C 27.867188 13.675781 28.804688 13.425781 29.671875 13.15625 C 30.285156 12.957031 31.023438 12.71875 31.890625 12.4375 C 32.765625 12.164062 33.6875 11.890625 34.65625 11.609375 C 35.625 11.328125 36.597656 11.109375 37.578125 10.953125 C 38.554688 10.804688 39.476562 10.769531 40.34375 10.84375 C 41.207031 10.925781 41.960938 11.164062 42.609375 11.5625 C 43.265625 11.957031 43.734375 12.585938 44.015625 13.453125 C 44.359375 14.546875 44.234375 15.617188 43.640625 16.671875 C 43.046875 17.722656 42.148438 18.738281 40.953125 19.71875 C 39.753906 20.695312 38.378906 21.613281 36.828125 22.46875 C 35.285156 23.332031 33.726562 24.109375 32.15625 24.796875 C 30.582031 25.492188 29.117188 26.09375 27.765625 26.59375 C 26.421875 27.101562 25.351562 27.488281 24.5625 27.75 C 22.738281 28.332031 20.644531 28.929688 18.28125 29.546875 C 15.914062 30.160156 13.441406 30.675781 10.859375 31.09375 C 8.273438 31.507812 5.679688 31.726562 3.078125 31.75 C 0.472656 31.78125 -1.953125 31.492188 -4.203125 30.890625 C -6.460938 30.285156 -8.4375 29.296875 -10.125 27.921875 C -11.8125 26.546875 -13.046875 24.632812 -13.828125 22.1875 Z M -13.828125 22.1875 "/></g></g></g><g fill="#fffefa" fill-opacity="1"><g transform="translate(102.402819, 139.644562)"><g><path d="M 27.109375 18.953125 C 25.816406 19.804688 24.28125 20.234375 22.5 20.234375 C 20.71875 20.234375 18.929688 19.929688 17.140625 19.328125 C 15.359375 18.734375 13.707031 17.925781 12.1875 16.90625 C 10.664062 15.882812 9.515625 14.785156 8.734375 13.609375 C 7.398438 11.578125 6.710938 9.4375 6.671875 7.1875 C 6.640625 4.945312 7.050781 2.773438 7.90625 0.671875 C 8.769531 -1.421875 9.960938 -3.363281 11.484375 -5.15625 C 13.003906 -6.957031 14.660156 -8.445312 16.453125 -9.625 C 18.359375 -10.882812 20.578125 -11.960938 23.109375 -12.859375 C 25.640625 -13.753906 28.175781 -14.265625 30.71875 -14.390625 C 33.257812 -14.515625 35.6875 -14.148438 38 -13.296875 C 40.320312 -12.453125 42.234375 -10.882812 43.734375 -8.59375 C 44.597656 -7.300781 45.195312 -5.914062 45.53125 -4.4375 C 45.875 -2.96875 45.9375 -1.53125 45.71875 -0.125 C 45.507812 1.28125 45.023438 2.613281 44.265625 3.875 C 43.503906 5.132812 42.4375 6.21875 41.0625 7.125 C 39.269531 8.3125 37.335938 9.039062 35.265625 9.3125 C 33.203125 9.582031 31.1875 9.460938 29.21875 8.953125 C 27.25 8.441406 25.367188 7.601562 23.578125 6.4375 C 21.796875 5.269531 20.300781 3.851562 19.09375 2.1875 C 18.082031 3.070312 17.578125 4.046875 17.578125 5.109375 C 17.578125 6.171875 17.914062 7.21875 18.59375 8.25 C 19.09375 9.007812 19.769531 9.628906 20.625 10.109375 C 21.488281 10.585938 22.382812 11.007812 23.3125 11.375 C 24.238281 11.75 25.113281 12.140625 25.9375 12.546875 C 26.757812 12.960938 27.398438 13.515625 27.859375 14.203125 C 28.359375 14.960938 28.5625 15.8125 28.46875 16.75 C 28.375 17.6875 27.921875 18.421875 27.109375 18.953125 Z M 35.015625 0.4375 C 35.515625 0.113281 35.941406 -0.351562 36.296875 -0.96875 C 36.648438 -1.59375 36.640625 -2.191406 36.265625 -2.765625 C 35.710938 -3.597656 35.023438 -4.15625 34.203125 -4.4375 C 33.390625 -4.71875 32.523438 -4.828125 31.609375 -4.765625 C 30.691406 -4.703125 29.78125 -4.523438 28.875 -4.234375 C 27.976562 -3.953125 27.191406 -3.613281 26.515625 -3.21875 C 26.984375 -2.757812 27.554688 -2.222656 28.234375 -1.609375 C 28.921875 -0.992188 29.644531 -0.457031 30.40625 0 C 31.175781 0.457031 31.960938 0.757812 32.765625 0.90625 C 33.578125 1.050781 34.328125 0.894531 35.015625 0.4375 Z M 35.015625 0.4375 "/></g></g></g><g fill="#fffefa" fill-opacity="1"><g transform="translate(128.658186, 176.334204)"><g><path d="M 14.8125 15.71875 C 14.226562 15.195312 14.003906 14.519531 14.140625 13.6875 C 14.273438 12.851562 14.554688 12.019531 14.984375 11.1875 C 15.421875 10.351562 15.921875 9.566406 16.484375 8.828125 C 17.054688 8.085938 17.515625 7.523438 17.859375 7.140625 C 18.765625 6.117188 19.726562 5.144531 20.75 4.21875 C 21.78125 3.289062 22.828125 2.382812 23.890625 1.5 C 24.960938 0.625 26.007812 -0.269531 27.03125 -1.1875 C 28.050781 -2.113281 29.019531 -3.09375 29.9375 -4.125 C 30.300781 -4.53125 30.675781 -4.984375 31.0625 -5.484375 C 31.457031 -5.992188 31.785156 -6.515625 32.046875 -7.046875 C 32.304688 -7.585938 32.421875 -8.113281 32.390625 -8.625 C 32.359375 -9.132812 32.125 -9.585938 31.6875 -9.984375 C 31.375 -10.265625 30.804688 -10.320312 29.984375 -10.15625 C 29.171875 -10 28.320312 -9.75 27.4375 -9.40625 C 26.5625 -9.0625 25.726562 -8.664062 24.9375 -8.21875 C 24.15625 -7.78125 23.628906 -7.410156 23.359375 -7.109375 C 22.691406 -6.359375 22.023438 -5.59375 21.359375 -4.8125 C 20.691406 -4.03125 20.007812 -3.25 19.3125 -2.46875 L 16.671875 0.5 C 16.097656 1.09375 15.488281 1.679688 14.84375 2.265625 C 14.195312 2.859375 13.53125 3.398438 12.84375 3.890625 C 12.195312 4.410156 11.519531 4.863281 10.8125 5.25 C 10.113281 5.632812 9.410156 5.894531 8.703125 6.03125 C 7.992188 6.175781 7.296875 6.1875 6.609375 6.0625 C 5.929688 5.9375 5.285156 5.601562 4.671875 5.0625 C 3.992188 4.457031 3.625 3.734375 3.5625 2.890625 C 3.507812 2.054688 3.660156 1.164062 4.015625 0.21875 C 4.367188 -0.71875 4.875 -1.675781 5.53125 -2.65625 C 6.1875 -3.644531 6.859375 -4.578125 7.546875 -5.453125 C 8.234375 -6.328125 8.894531 -7.109375 9.53125 -7.796875 C 10.164062 -8.484375 10.664062 -9.035156 11.03125 -9.453125 L 13.171875 -11.859375 C 14.328125 -13.160156 15.4375 -14.460938 16.5 -15.765625 C 17.570312 -17.066406 18.664062 -18.347656 19.78125 -19.609375 C 20.394531 -20.296875 21.175781 -21.164062 22.125 -22.21875 C 23.082031 -23.269531 24.128906 -24.191406 25.265625 -24.984375 C 26.410156 -25.773438 27.570312 -26.285156 28.75 -26.515625 C 29.925781 -26.753906 31.046875 -26.398438 32.109375 -25.453125 C 32.585938 -25.035156 32.878906 -24.503906 32.984375 -23.859375 C 33.085938 -23.210938 33.085938 -22.539062 32.984375 -21.84375 C 32.878906 -21.144531 32.691406 -20.453125 32.421875 -19.765625 C 32.160156 -19.085938 31.914062 -18.515625 31.6875 -18.046875 C 32.445312 -18.222656 33.253906 -18.328125 34.109375 -18.359375 C 34.960938 -18.398438 35.832031 -18.332031 36.71875 -18.15625 C 37.601562 -17.988281 38.492188 -17.6875 39.390625 -17.25 C 40.285156 -16.820312 41.195312 -16.195312 42.125 -15.375 C 43.863281 -13.832031 44.847656 -12.210938 45.078125 -10.515625 C 45.316406 -8.816406 45.113281 -7.132812 44.46875 -5.46875 C 43.820312 -3.8125 42.910156 -2.21875 41.734375 -0.6875 C 40.566406 0.832031 39.472656 2.171875 38.453125 3.328125 C 37.929688 3.910156 37.109375 4.726562 35.984375 5.78125 C 34.867188 6.832031 33.585938 7.953125 32.140625 9.140625 C 30.691406 10.328125 29.132812 11.476562 27.46875 12.59375 C 25.800781 13.71875 24.179688 14.648438 22.609375 15.390625 C 21.035156 16.140625 19.5625 16.578125 18.1875 16.703125 C 16.820312 16.835938 15.695312 16.507812 14.8125 15.71875 Z M 14.8125 15.71875 "/></g></g></g><g fill="#fffefa" fill-opacity="1"><g transform="translate(164.786846, 206.10222)"><g><path d="M 6.609375 25.296875 C 5.617188 24.828125 4.570312 24.132812 3.46875 23.21875 C 2.363281 22.3125 1.394531 21.300781 0.5625 20.1875 C -0.269531 19.070312 -0.867188 17.921875 -1.234375 16.734375 C -1.609375 15.546875 -1.539062 14.414062 -1.03125 13.34375 C -0.832031 12.9375 -0.523438 12.570312 -0.109375 12.25 C 0.296875 11.9375 0.75 11.710938 1.25 11.578125 C 1.75 11.441406 2.242188 11.378906 2.734375 11.390625 C 3.234375 11.398438 3.710938 11.515625 4.171875 11.734375 C 4.660156 11.972656 5.109375 12.273438 5.515625 12.640625 C 5.921875 13.015625 6.320312 13.421875 6.71875 13.859375 C 7.15625 14.328125 7.585938 14.765625 8.015625 15.171875 C 8.441406 15.585938 8.945312 15.9375 9.53125 16.21875 C 10.5625 16.707031 11.625 16.785156 12.71875 16.453125 C 13.820312 16.117188 14.910156 15.515625 15.984375 14.640625 C 17.066406 13.765625 18.101562 12.71875 19.09375 11.5 C 20.09375 10.28125 21.007812 9.035156 21.84375 7.765625 C 22.675781 6.492188 23.421875 5.28125 24.078125 4.125 C 24.742188 2.96875 25.269531 2.03125 25.65625 1.3125 C 23.175781 2.8125 20.941406 3.804688 18.953125 4.296875 C 16.960938 4.785156 14.941406 4.535156 12.890625 3.546875 C 11.316406 2.785156 10.101562 1.789062 9.25 0.5625 C 8.394531 -0.65625 7.8125 -1.992188 7.5 -3.453125 C 7.195312 -4.921875 7.109375 -6.472656 7.234375 -8.109375 C 7.367188 -9.742188 7.65625 -11.363281 8.09375 -12.96875 C 8.539062 -14.582031 9.0625 -16.117188 9.65625 -17.578125 C 10.257812 -19.046875 10.890625 -20.359375 11.546875 -21.515625 C 12.035156 -22.390625 12.722656 -23.515625 13.609375 -24.890625 C 14.492188 -26.273438 15.476562 -27.566406 16.5625 -28.765625 C 17.644531 -29.960938 18.785156 -30.863281 19.984375 -31.46875 C 21.191406 -32.082031 22.375 -32.0625 23.53125 -31.40625 C 24.300781 -30.988281 24.773438 -30.34375 24.953125 -29.46875 C 25.140625 -28.601562 25.160156 -27.617188 25.015625 -26.515625 C 24.867188 -25.421875 24.597656 -24.269531 24.203125 -23.0625 C 23.804688 -21.863281 23.359375 -20.695312 22.859375 -19.5625 C 22.359375 -18.4375 21.875 -17.414062 21.40625 -16.5 C 20.945312 -15.582031 20.597656 -14.875 20.359375 -14.375 C 20.023438 -13.6875 19.710938 -12.976562 19.421875 -12.25 C 19.128906 -11.53125 18.96875 -10.832031 18.9375 -10.15625 C 18.914062 -9.476562 19.082031 -8.851562 19.4375 -8.28125 C 19.800781 -7.707031 20.457031 -7.191406 21.40625 -6.734375 C 22.46875 -6.222656 23.445312 -6.082031 24.34375 -6.3125 C 25.25 -6.539062 26.046875 -6.976562 26.734375 -7.625 C 27.429688 -8.28125 28.046875 -9.050781 28.578125 -9.9375 C 29.109375 -10.832031 29.566406 -11.691406 29.953125 -12.515625 C 30.234375 -13.097656 30.570312 -13.796875 30.96875 -14.609375 C 31.363281 -15.429688 31.789062 -16.289062 32.25 -17.1875 C 32.707031 -18.082031 33.21875 -18.9375 33.78125 -19.75 C 34.34375 -20.570312 34.953125 -21.269531 35.609375 -21.84375 C 36.273438 -22.414062 36.972656 -22.800781 37.703125 -23 C 38.429688 -23.195312 39.203125 -23.101562 40.015625 -22.71875 C 41.046875 -22.21875 41.738281 -21.390625 42.09375 -20.234375 C 42.457031 -19.078125 42.582031 -17.722656 42.46875 -16.171875 C 42.363281 -14.628906 42.085938 -13.003906 41.640625 -11.296875 C 41.203125 -9.585938 40.691406 -7.921875 40.109375 -6.296875 C 39.535156 -4.679688 38.96875 -3.207031 38.40625 -1.875 C 37.84375 -0.550781 37.382812 0.476562 37.03125 1.21875 C 36.195312 2.945312 35.1875 4.882812 34 7.03125 C 32.820312 9.175781 31.5 11.328125 30.03125 13.484375 C 28.570312 15.648438 26.953125 17.6875 25.171875 19.59375 C 23.390625 21.5 21.503906 23.0625 19.515625 24.28125 C 17.535156 25.507812 15.46875 26.265625 13.3125 26.546875 C 11.15625 26.828125 8.921875 26.410156 6.609375 25.296875 Z M 6.609375 25.296875 "/></g></g></g><g fill="#fffefa" fill-opacity="1"><g transform="translate(211.083619, 225.929602)"><g><path d="M 32.359375 -4.28125 C 32.210938 -3.46875 31.992188 -2.414062 31.703125 -1.125 C 31.421875 0.164062 31.015625 1.40625 30.484375 2.59375 C 29.960938 3.78125 29.285156 4.765625 28.453125 5.546875 C 27.628906 6.328125 26.609375 6.617188 25.390625 6.421875 C 23.722656 6.128906 22.53125 5.363281 21.8125 4.125 C 21.09375 2.894531 20.894531 1.46875 21.21875 -0.15625 C 19.5625 0.875 17.757812 1.59375 15.8125 2 C 13.875 2.40625 11.960938 2.445312 10.078125 2.125 C 8.765625 1.90625 7.578125 1.378906 6.515625 0.546875 C 5.453125 -0.273438 4.550781 -1.257812 3.8125 -2.40625 C 3.082031 -3.550781 2.550781 -4.785156 2.21875 -6.109375 C 1.894531 -7.441406 1.835938 -8.71875 2.046875 -9.9375 C 2.410156 -12.09375 3.394531 -13.867188 5 -15.265625 C 6.601562 -16.660156 8.472656 -17.769531 10.609375 -18.59375 C 12.742188 -19.414062 14.957031 -19.972656 17.25 -20.265625 C 19.550781 -20.566406 21.578125 -20.6875 23.328125 -20.625 C 23.359375 -20.851562 23.398438 -21.050781 23.453125 -21.21875 C 23.503906 -21.394531 23.550781 -21.597656 23.59375 -21.828125 C 23.832031 -23.222656 23.640625 -24.414062 23.015625 -25.40625 C 22.398438 -26.394531 21.394531 -27.007812 20 -27.25 C 18.875 -27.445312 17.875 -27.421875 17 -27.171875 C 16.125 -26.921875 15.285156 -26.617188 14.484375 -26.265625 C 13.679688 -25.921875 12.882812 -25.617188 12.09375 -25.359375 C 11.3125 -25.097656 10.46875 -25.046875 9.5625 -25.203125 C 8.582031 -25.367188 7.796875 -25.820312 7.203125 -26.5625 C 6.617188 -27.3125 6.410156 -28.1875 6.578125 -29.1875 C 6.828125 -30.664062 7.492188 -31.9375 8.578125 -33 C 9.660156 -34.0625 10.9375 -34.894531 12.40625 -35.5 C 13.875 -36.113281 15.425781 -36.523438 17.0625 -36.734375 C 18.695312 -36.953125 20.164062 -36.953125 21.46875 -36.734375 C 22.695312 -36.523438 23.890625 -36.171875 25.046875 -35.671875 C 26.203125 -35.171875 27.269531 -34.519531 28.25 -33.71875 C 29.226562 -32.925781 30.082031 -32.015625 30.8125 -30.984375 C 31.550781 -29.960938 32.085938 -28.816406 32.421875 -27.546875 C 32.941406 -25.753906 33.289062 -23.878906 33.46875 -21.921875 C 33.65625 -19.972656 33.71875 -17.992188 33.65625 -15.984375 C 33.59375 -13.984375 33.4375 -11.992188 33.1875 -10.015625 C 32.945312 -8.046875 32.671875 -6.132812 32.359375 -4.28125 Z M 21.921875 -8.296875 L 22.484375 -12.921875 C 22.398438 -12.929688 22.3125 -12.953125 22.21875 -12.984375 C 22.132812 -13.023438 22.046875 -13.054688 21.953125 -13.078125 C 21.367188 -13.179688 20.613281 -13.160156 19.6875 -13.015625 C 18.769531 -12.867188 17.859375 -12.601562 16.953125 -12.21875 C 16.054688 -11.84375 15.269531 -11.382812 14.59375 -10.84375 C 13.925781 -10.3125 13.535156 -9.710938 13.421875 -9.046875 C 13.316406 -8.410156 13.46875 -7.9375 13.875 -7.625 C 14.28125 -7.320312 14.773438 -7.125 15.359375 -7.03125 C 16.359375 -6.863281 17.460938 -6.941406 18.671875 -7.265625 C 19.890625 -7.597656 20.972656 -7.941406 21.921875 -8.296875 Z M 21.921875 -8.296875 "/></g></g></g><g fill="#fffefa" fill-opacity="1"><g transform="translate(257.724118, 231.962501)"><g><path d="M 28.671875 -39.890625 C 28.796875 -38.617188 28.59375 -37.289062 28.0625 -35.90625 C 27.53125 -34.519531 26.863281 -33.128906 26.0625 -31.734375 C 25.257812 -30.347656 24.40625 -29.023438 23.5 -27.765625 C 22.59375 -26.515625 21.804688 -25.367188 21.140625 -24.328125 C 21.859375 -23.398438 22.773438 -22.15625 23.890625 -20.59375 C 25.015625 -19.03125 26.101562 -17.359375 27.15625 -15.578125 C 28.21875 -13.796875 29.140625 -12.050781 29.921875 -10.34375 C 30.710938 -8.632812 31.164062 -7.1875 31.28125 -6 C 31.375 -5.050781 31.164062 -4.148438 30.65625 -3.296875 C 30.144531 -2.441406 29.363281 -1.960938 28.3125 -1.859375 C 27.539062 -1.773438 26.722656 -2.023438 25.859375 -2.609375 C 24.992188 -3.191406 24.113281 -3.976562 23.21875 -4.96875 C 22.320312 -5.957031 21.445312 -7.070312 20.59375 -8.3125 C 19.738281 -9.550781 18.9375 -10.773438 18.1875 -11.984375 C 17.445312 -13.203125 16.78125 -14.34375 16.1875 -15.40625 C 15.601562 -16.476562 15.144531 -17.34375 14.8125 -18 C 14.28125 -17.34375 13.703125 -16.785156 13.078125 -16.328125 C 12.460938 -15.878906 11.859375 -15.378906 11.265625 -14.828125 C 11.359375 -13.859375 11.457031 -12.507812 11.5625 -10.78125 C 11.664062 -9.050781 11.628906 -7.328125 11.453125 -5.609375 C 11.273438 -3.890625 10.863281 -2.367188 10.21875 -1.046875 C 9.570312 0.265625 8.5 1 7 1.15625 C 5.8125 1.269531 4.847656 0.828125 4.109375 -0.171875 C 3.367188 -1.179688 2.78125 -2.382812 2.34375 -3.78125 C 1.90625 -5.175781 1.585938 -6.609375 1.390625 -8.078125 C 1.203125 -9.554688 1.066406 -10.675781 0.984375 -11.4375 C 0.648438 -14.8125 0.40625 -18.191406 0.25 -21.578125 C 0.101562 -24.960938 -0.113281 -28.332031 -0.40625 -31.6875 C -0.476562 -32.46875 -0.5625 -33.484375 -0.65625 -34.734375 C -0.757812 -35.992188 -0.816406 -37.351562 -0.828125 -38.8125 C -0.835938 -40.28125 -0.78125 -41.78125 -0.65625 -43.3125 C -0.53125 -44.84375 -0.28125 -46.234375 0.09375 -47.484375 C 0.46875 -48.734375 1.015625 -49.769531 1.734375 -50.59375 C 2.460938 -51.425781 3.394531 -51.898438 4.53125 -52.015625 C 5.351562 -52.097656 6.078125 -51.859375 6.703125 -51.296875 C 7.335938 -50.742188 7.875 -50.003906 8.3125 -49.078125 C 8.75 -48.160156 9.101562 -47.117188 9.375 -45.953125 C 9.644531 -44.785156 9.867188 -43.628906 10.046875 -42.484375 C 10.234375 -41.335938 10.375 -40.265625 10.46875 -39.265625 C 10.570312 -38.265625 10.648438 -37.46875 10.703125 -36.875 C 10.742188 -36.46875 10.796875 -35.863281 10.859375 -35.0625 C 10.921875 -34.257812 10.984375 -33.425781 11.046875 -32.5625 C 11.117188 -31.707031 11.191406 -30.910156 11.265625 -30.171875 C 11.335938 -29.441406 11.425781 -28.925781 11.53125 -28.625 C 11.851562 -28.65625 12.300781 -29.007812 12.875 -29.6875 C 13.457031 -30.363281 14.117188 -31.21875 14.859375 -32.25 C 15.609375 -33.289062 16.421875 -34.394531 17.296875 -35.5625 C 18.171875 -36.726562 19.066406 -37.835938 19.984375 -38.890625 C 20.910156 -39.941406 21.84375 -40.820312 22.78125 -41.53125 C 23.726562 -42.25 24.632812 -42.648438 25.5 -42.734375 C 26.40625 -42.828125 27.140625 -42.582031 27.703125 -42 C 28.265625 -41.414062 28.585938 -40.710938 28.671875 -39.890625 Z M 28.671875 -39.890625 "/></g></g></g><g fill="#fffefa" fill-opacity="1"><g transform="translate(302.523808, 225.307047)"><g><path d="M -2 -49.625 C -1.789062 -49.007812 -1.773438 -48.410156 -1.953125 -47.828125 C -2.128906 -47.242188 -2.414062 -46.679688 -2.8125 -46.140625 C -3.21875 -45.597656 -3.691406 -45.132812 -4.234375 -44.75 C -4.785156 -44.363281 -5.320312 -44.085938 -5.84375 -43.921875 C -6.707031 -43.640625 -7.535156 -43.609375 -8.328125 -43.828125 C -9.128906 -44.046875 -9.675781 -44.609375 -9.96875 -45.515625 C -10.175781 -46.171875 -10.195312 -46.800781 -10.03125 -47.40625 C -9.863281 -48.007812 -9.59375 -48.550781 -9.21875 -49.03125 C -8.851562 -49.519531 -8.394531 -49.945312 -7.84375 -50.3125 C -7.289062 -50.6875 -6.734375 -50.960938 -6.171875 -51.140625 C -5.335938 -51.410156 -4.507812 -51.460938 -3.6875 -51.296875 C -2.863281 -51.128906 -2.300781 -50.570312 -2 -49.625 Z M 5.6875 -27.625 C 5.882812 -27.007812 6.09375 -26.363281 6.3125 -25.6875 C 6.53125 -25.007812 6.71875 -24.363281 6.875 -23.75 C 7.050781 -23 7.335938 -22.003906 7.734375 -20.765625 C 8.140625 -19.523438 8.535156 -18.171875 8.921875 -16.703125 C 9.304688 -15.242188 9.632812 -13.742188 9.90625 -12.203125 C 10.1875 -10.660156 10.304688 -9.210938 10.265625 -7.859375 C 10.234375 -6.503906 9.976562 -5.328125 9.5 -4.328125 C 9.03125 -3.335938 8.257812 -2.644531 7.1875 -2.25 C 6.382812 -1.9375 5.582031 -2.039062 4.78125 -2.5625 C 3.988281 -3.082031 3.226562 -3.832031 2.5 -4.8125 C 1.78125 -5.800781 1.113281 -6.945312 0.5 -8.25 C -0.113281 -9.5625 -0.671875 -10.847656 -1.171875 -12.109375 C -1.679688 -13.367188 -2.109375 -14.539062 -2.453125 -15.625 C -2.804688 -16.707031 -3.066406 -17.515625 -3.234375 -18.046875 C -3.460938 -18.734375 -3.785156 -19.71875 -4.203125 -21 C -4.617188 -22.289062 -5.019531 -23.6875 -5.40625 -25.1875 C -5.789062 -26.6875 -6.109375 -28.234375 -6.359375 -29.828125 C -6.617188 -31.429688 -6.722656 -32.9375 -6.671875 -34.34375 C -6.617188 -35.75 -6.347656 -36.960938 -5.859375 -37.984375 C -5.378906 -39.003906 -4.570312 -39.695312 -3.4375 -40.0625 C -2.269531 -40.4375 -1.191406 -40.132812 -0.203125 -39.15625 C 0.773438 -38.1875 1.664062 -36.96875 2.46875 -35.5 C 3.28125 -34.039062 3.957031 -32.546875 4.5 -31.015625 C 5.050781 -29.484375 5.445312 -28.351562 5.6875 -27.625 Z M 5.6875 -27.625 "/></g></g></g><g fill="#fffefa" fill-opacity="1"><g transform="translate(330.269779, 215.819621)"><g><path d="M 19.578125 -9.140625 C 18.898438 -8.753906 18.1875 -8.75 17.4375 -9.125 C 16.6875 -9.507812 15.984375 -10.039062 15.328125 -10.71875 C 14.671875 -11.394531 14.078125 -12.117188 13.546875 -12.890625 C 13.015625 -13.660156 12.625 -14.269531 12.375 -14.71875 C 11.6875 -15.894531 11.066406 -17.113281 10.515625 -18.375 C 9.960938 -19.632812 9.429688 -20.910156 8.921875 -22.203125 C 8.421875 -23.503906 7.894531 -24.785156 7.34375 -26.046875 C 6.789062 -27.304688 6.164062 -28.53125 5.46875 -29.71875 C 5.195312 -30.195312 4.882812 -30.703125 4.53125 -31.234375 C 4.175781 -31.765625 3.78125 -32.234375 3.34375 -32.640625 C 2.914062 -33.054688 2.453125 -33.328125 1.953125 -33.453125 C 1.460938 -33.585938 0.957031 -33.503906 0.4375 -33.203125 C 0.0820312 -32.992188 -0.140625 -32.476562 -0.234375 -31.65625 C -0.335938 -30.84375 -0.363281 -29.957031 -0.3125 -29 C -0.269531 -28.050781 -0.164062 -27.140625 0 -26.265625 C 0.175781 -25.390625 0.367188 -24.773438 0.578125 -24.421875 C 1.078125 -23.554688 1.59375 -22.679688 2.125 -21.796875 C 2.65625 -20.921875 3.1875 -20.023438 3.71875 -19.109375 L 5.71875 -15.6875 C 6.09375 -14.945312 6.457031 -14.175781 6.8125 -13.375 C 7.164062 -12.582031 7.46875 -11.785156 7.71875 -10.984375 C 8.007812 -10.203125 8.226562 -9.414062 8.375 -8.625 C 8.519531 -7.84375 8.546875 -7.09375 8.453125 -6.375 C 8.367188 -5.65625 8.160156 -4.988281 7.828125 -4.375 C 7.492188 -3.769531 6.972656 -3.257812 6.265625 -2.84375 C 5.484375 -2.382812 4.6875 -2.265625 3.875 -2.484375 C 3.0625 -2.703125 2.257812 -3.125 1.46875 -3.75 C 0.675781 -4.375 -0.078125 -5.148438 -0.796875 -6.078125 C -1.515625 -7.003906 -2.179688 -7.929688 -2.796875 -8.859375 C -3.421875 -9.796875 -3.957031 -10.675781 -4.40625 -11.5 C -4.863281 -12.320312 -5.226562 -12.96875 -5.5 -13.4375 L -7.125 -16.234375 C -8 -17.734375 -8.882812 -19.191406 -9.78125 -20.609375 C -10.6875 -22.035156 -11.566406 -23.476562 -12.421875 -24.9375 C -12.878906 -25.726562 -13.453125 -26.742188 -14.140625 -27.984375 C -14.835938 -29.222656 -15.382812 -30.503906 -15.78125 -31.828125 C -16.175781 -33.148438 -16.300781 -34.410156 -16.15625 -35.609375 C -16.007812 -36.816406 -15.328125 -37.773438 -14.109375 -38.484375 C -13.554688 -38.804688 -12.957031 -38.910156 -12.3125 -38.796875 C -11.664062 -38.691406 -11.023438 -38.476562 -10.390625 -38.15625 C -9.765625 -37.84375 -9.171875 -37.453125 -8.609375 -36.984375 C -8.046875 -36.523438 -7.578125 -36.113281 -7.203125 -35.75 C -7.117188 -36.53125 -6.957031 -37.332031 -6.71875 -38.15625 C -6.488281 -38.976562 -6.15625 -39.78125 -5.71875 -40.5625 C -5.28125 -41.351562 -4.710938 -42.109375 -4.015625 -42.828125 C -3.328125 -43.546875 -2.445312 -44.21875 -1.375 -44.84375 C 0.625 -46.007812 2.46875 -46.429688 4.15625 -46.109375 C 5.851562 -45.796875 7.382812 -45.070312 8.75 -43.9375 C 10.125 -42.8125 11.351562 -41.453125 12.4375 -39.859375 C 13.519531 -38.265625 14.445312 -36.796875 15.21875 -35.453125 C 15.613281 -34.785156 16.132812 -33.753906 16.78125 -32.359375 C 17.4375 -30.972656 18.097656 -29.40625 18.765625 -27.65625 C 19.429688 -25.90625 20.035156 -24.0625 20.578125 -22.125 C 21.117188 -20.195312 21.492188 -18.367188 21.703125 -16.640625 C 21.921875 -14.921875 21.875 -13.390625 21.5625 -12.046875 C 21.257812 -10.710938 20.597656 -9.742188 19.578125 -9.140625 Z M 19.578125 -9.140625 "/></g></g></g><g fill="#fffefa" fill-opacity="1"><g transform="translate(368.218059, 191.262413)"><g/></g></g><path fill="#f6ce10" d="M 237.851562 57.738281 C 236.589844 57.53125 236.925781 56.148438 237.175781 55.273438 C 237.523438 53.789062 237.84375 52.296875 238.300781 50.839844 C 238.917969 48.910156 239.75 47.0625 240.484375 45.175781 C 240.699219 44.625 241.382812 44.371094 241.917969 44.597656 C 242.480469 44.832031 242.71875 45.472656 242.503906 46.023438 C 241.882812 47.605469 241.210938 49.164062 240.628906 50.757812 C 239.980469 52.695312 239.546875 54.691406 239.101562 56.679688 C 239.085938 57.320312 238.480469 57.824219 237.851562 57.738281 " fill-opacity="1" fill-rule="nonzero"/><path fill="#f6ce10" d="M 245.023438 61.589844 C 244.621094 61.074219 244.78125 60.316406 245.332031 59.972656 C 246.683594 58.667969 248.171875 57.148438 249.554688 55.972656 C 251.441406 54.316406 253.335938 52.664062 255.234375 51.019531 C 256.328125 50.136719 257.707031 51.894531 256.570312 52.742188 C 253.867188 55.121094 251.285156 57.265625 248.746094 59.679688 C 247.699219 60.425781 246.4375 62.96875 245.023438 61.589844 " fill-opacity="1" fill-rule="nonzero"/><path fill="#f6ce10" d="M 250.980469 67.828125 C 250.46875 66.089844 253.007812 66.03125 254.101562 65.535156 C 256.621094 64.792969 259.15625 64.109375 261.6875 63.402344 C 262.261719 63.246094 262.875 63.59375 263.03125 64.164062 C 263.191406 64.738281 262.84375 65.347656 262.269531 65.503906 C 260.671875 65.941406 259.074219 66.390625 257.476562 66.839844 C 255.996094 67.253906 254.519531 67.667969 253.0625 68.15625 C 252.359375 68.511719 251.367188 68.734375 250.980469 67.828125 " fill-opacity="1" fill-rule="nonzero"/><path fill="#f6ce10" d="M 237.632812 71.421875 C 237.757812 71.105469 237.75 70.734375 237.589844 70.433594 C 238.089844 70.488281 238.59375 70.550781 239.09375 70.601562 C 238.605469 70.878906 238.121094 71.148438 237.632812 71.421875 Z M 229.105469 75.859375 C 229.507812 75.3125 229.875 74.78125 230.214844 74.457031 C 231.378906 75.425781 232.511719 73.820312 233.296875 73.089844 C 233.425781 73.304688 233.558594 73.460938 233.695312 73.570312 C 232.183594 74.367188 230.652344 75.140625 229.105469 75.859375 Z M 228.699219 70.007812 C 228.632812 69.644531 228.4375 69.402344 228.191406 69.265625 C 229.207031 69.394531 230.226562 69.527344 231.246094 69.65625 C 231.011719 69.878906 230.808594 70.136719 230.660156 70.390625 C 230.464844 69.507812 229.25 69.320312 228.699219 70.007812 Z M 226.449219 70.0625 C 225.339844 68.132812 223.867188 70.621094 223.167969 71.617188 C 222.859375 71.390625 222.449219 71.351562 222.101562 71.488281 C 222.707031 70.566406 223.378906 69.671875 223.949219 68.734375 C 224.703125 68.824219 225.519531 68.820312 226.054688 68.996094 C 226.5 69.046875 226.9375 69.105469 227.378906 69.164062 C 226.960938 69.257812 226.578125 69.566406 226.449219 70.0625 Z M 222.394531 83.851562 C 222.363281 83.835938 222.332031 83.820312 222.300781 83.808594 C 220.984375 83.335938 220.484375 85.113281 219.726562 85.839844 C 220.027344 84.691406 221.148438 83.273438 221.363281 82.019531 C 221.855469 82.292969 222.34375 82.167969 222.8125 81.816406 C 222.675781 82.496094 222.539062 83.175781 222.394531 83.851562 Z M 219.957031 93.6875 C 219.945312 93.679688 219.9375 93.671875 219.925781 93.664062 C 219.957031 93.589844 219.996094 93.515625 220.027344 93.4375 C 220.003906 93.519531 219.980469 93.601562 219.957031 93.6875 Z M 220.648438 51.527344 C 220.804688 52.3125 220.957031 53.09375 221.097656 53.882812 C 220.574219 53.917969 219.996094 54.25 219.644531 54.78125 C 219.835938 53.949219 220.542969 52.609375 220.648438 51.527344 Z M 219.976562 48.390625 C 220.132812 49.066406 220.277344 49.742188 220.421875 50.417969 C 220.25 50.183594 219.980469 50 219.570312 49.890625 C 219.632812 49.421875 219.800781 48.914062 219.976562 48.390625 Z M 221.570312 56.660156 C 221.742188 57.714844 221.90625 58.765625 222.054688 59.824219 C 221.722656 59.75 221.351562 59.808594 221.042969 60.0625 C 221.492188 59.246094 222.269531 57.933594 221.234375 57.246094 C 221.34375 57.050781 221.457031 56.855469 221.570312 56.660156 Z M 222.535156 62.425781 C 222.601562 62.765625 222.667969 63.105469 222.734375 63.445312 C 222.550781 63.402344 222.335938 63.386719 222.074219 63.40625 C 222.222656 63.082031 222.386719 62.757812 222.535156 62.425781 Z M 223.167969 65.746094 C 223.207031 65.964844 223.25 66.179688 223.289062 66.398438 C 223.132812 66.398438 222.984375 66.414062 222.847656 66.449219 C 222.960938 66.230469 223.070312 65.992188 223.167969 65.746094 Z M 218.671875 45.167969 C 218.753906 44.800781 218.835938 44.433594 218.914062 44.066406 C 218.988281 44.347656 219.058594 44.625 219.128906 44.90625 C 218.960938 44.957031 218.804688 45.046875 218.671875 45.167969 Z M 215.347656 70.269531 C 215.941406 69.316406 216.503906 68.351562 216.910156 67.3125 C 216.921875 67.277344 216.929688 67.246094 216.933594 67.214844 C 217.398438 66.683594 217.882812 66.15625 218.421875 65.65625 C 217.507812 67.265625 216.449219 68.785156 215.347656 70.269531 Z M 217.792969 100.855469 C 217.679688 100.25 217.558594 99.652344 217.429688 99.058594 C 217.5 99.109375 217.574219 99.15625 217.65625 99.191406 C 217.90625 99.277344 218.117188 99.292969 218.300781 99.253906 C 218.132812 99.789062 217.964844 100.324219 217.792969 100.855469 Z M 217.570312 82.816406 C 217.644531 82.714844 217.714844 82.621094 217.792969 82.53125 C 217.710938 82.730469 217.609375 82.9375 217.492188 83.144531 C 217.46875 83.167969 217.449219 83.1875 217.425781 83.210938 C 217.476562 83.078125 217.523438 82.949219 217.570312 82.816406 Z M 216.246094 93.910156 C 215.816406 92.132812 215.382812 90.347656 214.984375 88.523438 C 215.546875 88.617188 216.210938 88.335938 216.550781 87.808594 C 216.253906 88.769531 215.515625 89.773438 215.820312 90.800781 C 216.0625 91.421875 216.765625 91.832031 217.398438 91.535156 C 217.207031 92.210938 216.542969 93.09375 216.246094 93.910156 Z M 216.679688 95.726562 C 216.667969 95.683594 216.65625 95.636719 216.648438 95.59375 C 216.671875 95.609375 216.691406 95.625 216.71875 95.640625 C 216.703125 95.667969 216.691406 95.699219 216.679688 95.726562 Z M 214.378906 85.582031 C 214.21875 84.769531 214.066406 83.957031 213.929688 83.140625 C 214.175781 83.222656 214.457031 83.21875 214.730469 83.070312 C 214.683594 83.359375 214.761719 83.644531 214.921875 83.871094 C 214.730469 84.4375 214.535156 85.007812 214.378906 85.582031 Z M 212.644531 77.960938 C 212.585938 77.957031 212.53125 77.957031 212.476562 77.957031 C 212.769531 77.621094 213.027344 77.226562 213.265625 76.941406 C 213.746094 76.335938 214.21875 75.730469 214.695312 75.121094 C 215.015625 74.894531 215.289062 74.695312 215.492188 74.558594 C 215.808594 74.203125 215.933594 73.859375 215.917969 73.566406 C 216.585938 72.71875 217.253906 71.875 217.933594 71.039062 C 217.425781 72.675781 214.597656 76.007812 213.386719 78.589844 C 213.273438 78.292969 213.058594 78.0625 212.644531 77.960938 Z M 214.53125 62.304688 C 214.695312 62.429688 214.894531 62.511719 215.113281 62.515625 C 214.960938 62.859375 214.601562 63.320312 214.199219 63.828125 C 214.308594 63.320312 214.421875 62.816406 214.53125 62.304688 Z M 216.105469 55.640625 C 216.265625 55.84375 216.507812 55.988281 216.828125 56.019531 C 216.382812 57.132812 215.824219 58.195312 215.222656 59.230469 C 215.507812 58.03125 215.804688 56.835938 216.105469 55.640625 Z M 210.429688 78.054688 C 209.757812 77.910156 209.082031 77.761719 208.410156 77.621094 C 208.503906 77.542969 208.589844 77.449219 208.65625 77.328125 C 209.085938 76.671875 209.480469 75.992188 209.925781 75.347656 C 209.890625 76.253906 210.121094 76.71875 210.515625 76.902344 C 210.3125 77.289062 210.222656 77.691406 210.429688 78.054688 Z M 206.417969 77.191406 C 206.492188 77.101562 206.5625 77.015625 206.625 76.929688 C 206.640625 77.050781 206.675781 77.160156 206.722656 77.257812 C 206.621094 77.238281 206.519531 77.214844 206.417969 77.191406 Z M 205.871094 71.675781 C 205.789062 71.496094 205.695312 71.351562 205.59375 71.242188 C 205.902344 71.144531 206.214844 71.042969 206.523438 70.945312 C 206.304688 71.230469 206.09375 71.492188 205.871094 71.675781 Z M 202.09375 72.6875 C 202.023438 72.582031 201.933594 72.488281 201.835938 72.40625 C 202.167969 72.308594 202.496094 72.207031 202.824219 72.105469 C 202.554688 72.332031 202.304688 72.542969 202.09375 72.6875 Z M 199.375 75.460938 C 199.738281 75.292969 200.085938 75.066406 200.359375 74.824219 C 200.730469 75.476562 201.585938 75.582031 202.210938 75.234375 C 202.085938 75.605469 202.160156 75.96875 202.351562 76.257812 C 201.355469 76.007812 200.359375 75.746094 199.375 75.460938 Z M 197.128906 74.769531 C 196.648438 74.609375 196.167969 74.445312 195.695312 74.273438 C 196.234375 74.109375 196.769531 73.941406 197.308594 73.777344 C 197.234375 73.949219 197.171875 74.109375 197.121094 74.25 C 197.105469 74.445312 197.109375 74.617188 197.128906 74.769531 Z M 241.75 68.980469 C 240.144531 68.492188 238.46875 68.273438 236.777344 68.105469 C 236.488281 67.789062 236.03125 67.664062 235.480469 67.941406 C 235.464844 67.953125 235.453125 67.964844 235.441406 67.976562 C 234.109375 67.851562 232.78125 67.722656 231.484375 67.480469 C 229.476562 67.226562 227.46875 66.988281 225.460938 66.714844 C 225.503906 66.570312 225.511719 66.414062 225.484375 66.242188 C 223.925781 58.285156 222.960938 50.230469 220.742188 42.414062 C 220.550781 40.882812 219.222656 37.730469 217.644531 40.082031 C 217.199219 41.265625 217.054688 42.554688 216.734375 43.777344 C 215.542969 49.507812 213.875 55.117188 212.613281 60.828125 C 212.238281 62.601562 211.832031 64.371094 211.46875 66.148438 C 211.414062 66.414062 211.339844 66.722656 211.28125 67.042969 C 211.28125 67.042969 211.277344 67.042969 211.269531 67.046875 C 209.070312 67.78125 206.886719 68.5625 204.671875 69.253906 C 200.863281 70.472656 196.984375 71.496094 193.210938 72.824219 C 188.460938 76.265625 205.292969 79.183594 211.320312 80.445312 C 211.394531 81.050781 211.515625 81.648438 211.539062 82.070312 C 212.269531 86.621094 213.265625 91.128906 214.421875 95.589844 C 215.144531 97.464844 215.648438 104.261719 217.050781 104.976562 C 219.464844 106.078125 220.308594 99.253906 221.101562 97.667969 C 222.785156 91.742188 224.367188 85.753906 225.449219 79.6875 C 228.859375 78.464844 232.132812 76.917969 235.300781 75.15625 C 236.78125 74.074219 244.78125 71.300781 241.75 68.980469 " fill-opacity="1" fill-rule="nonzero"/><path fill="#f6ce10" d="M 256.386719 105.332031 C 254.890625 103.140625 261.121094 102.480469 262.445312 101.839844 C 264.527344 101.253906 266.609375 100.671875 268.699219 100.117188 C 269.273438 99.964844 269.886719 100.304688 270.042969 100.878906 C 270.203125 101.449219 269.855469 102.066406 269.28125 102.21875 C 265.71875 103.183594 262.144531 104.132812 258.632812 105.277344 C 257.902344 105.535156 257.003906 106.140625 256.386719 105.332031 " fill-opacity="1" fill-rule="nonzero"/><path fill="#f6ce10" d="M 271.445312 118.738281 C 269.488281 117.871094 267.511719 117.042969 265.535156 116.214844 C 264.453125 115.644531 261.722656 115.21875 262.738281 113.496094 C 263.148438 112.933594 263.945312 113.007812 264.433594 113.378906 C 265.792969 113.996094 267.195312 114.523438 268.5625 115.121094 C 269.679688 115.859375 273.566406 116.421875 272.878906 118.160156 C 272.652344 118.703125 271.980469 118.980469 271.445312 118.738281 " fill-opacity="1" fill-rule="nonzero"/><path fill="#f6ce10" d="M 267.136719 134.035156 C 264.597656 131.949219 262.070312 129.855469 259.527344 127.777344 C 259.066406 127.402344 258.957031 126.730469 259.332031 126.25 C 259.683594 125.792969 260.402344 125.675781 260.863281 126.050781 C 263.40625 128.132812 265.933594 130.226562 268.472656 132.3125 C 269.59375 133.167969 268.242188 134.914062 267.136719 134.035156 " fill-opacity="1" fill-rule="nonzero"/><path fill="#f6ce10" d="M 252.859375 114.734375 C 252.878906 114.292969 252.597656 113.871094 252.195312 113.691406 C 252.753906 113.839844 253.316406 113.988281 253.875 114.136719 C 253.542969 114.351562 253.203125 114.546875 252.859375 114.734375 Z M 246.585938 117.074219 C 245.738281 117.320312 244.902344 117.585938 244.070312 117.867188 C 244.046875 117.484375 243.796875 117.171875 243.46875 117.003906 C 244.054688 116.390625 244.605469 115.738281 245.039062 115.429688 C 244.863281 116.132812 245.332031 116.984375 246.121094 116.957031 C 247.226562 116.929688 248.0625 116.003906 248.976562 115.476562 C 248.957031 115.808594 249.058594 116.074219 249.226562 116.273438 C 248.351562 116.566406 247.46875 116.824219 246.585938 117.074219 Z M 244.957031 111.800781 C 245.136719 111.847656 245.316406 111.894531 245.496094 111.9375 C 245.246094 112.214844 244.996094 112.480469 244.722656 112.691406 C 244.875 112.421875 244.953125 112.109375 244.957031 111.800781 Z M 248.335938 112.671875 C 248.519531 112.71875 248.707031 112.769531 248.890625 112.816406 C 248.617188 113.058594 248.339844 113.292969 248.042969 113.460938 C 248.136719 113.230469 248.246094 112.957031 248.335938 112.671875 Z M 241.691406 118.734375 C 241.644531 118.613281 241.578125 118.5 241.492188 118.398438 C 241.578125 118.386719 241.667969 118.367188 241.757812 118.335938 C 241.734375 118.464844 241.710938 118.601562 241.691406 118.734375 Z M 241.511719 119.832031 C 241.507812 119.828125 241.5 119.820312 241.492188 119.816406 C 241.507812 119.800781 241.515625 119.78125 241.527344 119.765625 C 241.523438 119.785156 241.519531 119.808594 241.511719 119.832031 Z M 240.066406 103.554688 C 240.25 103.046875 240.652344 102.371094 241.035156 101.65625 C 241.101562 102.074219 241.171875 102.492188 241.238281 102.90625 C 240.808594 103.027344 240.382812 103.273438 240.066406 103.554688 Z M 240.484375 124.328125 C 240.386719 124.1875 240.25 124.0625 240.054688 123.960938 C 240.316406 123.539062 240.585938 123.125 240.871094 122.714844 C 240.746094 123.253906 240.617188 123.792969 240.484375 124.328125 Z M 237.765625 120.761719 C 238.222656 119.851562 238.714844 118.960938 239.214844 118.078125 C 239.636719 117.605469 240.0625 117.136719 240.496094 116.679688 C 240.28125 117.097656 240.296875 117.621094 240.558594 117.988281 C 240.332031 118.003906 240.105469 118.097656 239.898438 118.300781 C 239.152344 119.089844 238.550781 120.003906 237.765625 120.761719 Z M 239.335938 128.652344 C 239.289062 128.605469 239.238281 128.554688 239.179688 128.503906 C 239.253906 128.199219 239.449219 127.8125 239.671875 127.402344 C 239.5625 127.820312 239.449219 128.238281 239.335938 128.652344 Z M 237.273438 136.203125 C 237.214844 135.945312 237.15625 135.691406 237.097656 135.4375 C 237.25 135.386719 237.398438 135.316406 237.542969 135.226562 C 237.453125 135.550781 237.363281 135.875 237.273438 136.203125 Z M 236.8125 116.207031 C 237.175781 115.269531 238.183594 113.945312 238.734375 112.792969 C 239.429688 112.308594 239.863281 111.34375 240.554688 110.84375 C 239.691406 112.246094 238.792969 113.625 237.933594 115.027344 C 237.5625 115.421875 237.191406 115.820312 236.8125 116.207031 Z M 236.574219 110.292969 C 237.4375 109.09375 238.402344 107.972656 239.453125 106.933594 C 238.765625 108.238281 238.058594 109.53125 237.390625 110.84375 C 237.207031 110.957031 237.042969 111.113281 236.929688 111.316406 C 237.03125 110.910156 236.859375 110.535156 236.574219 110.292969 Z M 236.265625 132.042969 C 236.207031 131.8125 236.144531 131.582031 236.085938 131.351562 C 236.164062 131.492188 236.273438 131.613281 236.402344 131.703125 C 236.363281 131.8125 236.316406 131.925781 236.265625 132.042969 Z M 235.945312 130.804688 C 235.878906 130.554688 235.816406 130.308594 235.753906 130.0625 C 235.851562 130.074219 235.960938 130.085938 236.078125 130.082031 C 235.992188 130.316406 235.9375 130.554688 235.945312 130.804688 Z M 235.183594 127.8125 C 235.121094 127.550781 235.058594 127.289062 234.996094 127.023438 C 235.105469 127.15625 235.257812 127.273438 235.46875 127.363281 C 235.363281 127.496094 235.269531 127.648438 235.183594 127.8125 Z M 234.507812 124.839844 C 234.320312 123.832031 234.152344 122.820312 233.96875 121.8125 C 234.507812 121.511719 234.925781 121.003906 235.40625 120.628906 C 234.820312 121.8125 233.847656 123.828125 235.453125 124.621094 C 235.175781 125.03125 234.863281 125.605469 234.789062 126.140625 C 234.691406 125.707031 234.597656 125.273438 234.507812 124.839844 Z M 234.296875 110.589844 C 234.335938 110.699219 234.390625 110.796875 234.460938 110.890625 C 234.195312 111.136719 233.933594 111.386719 233.664062 111.632812 C 233.859375 111.277344 234.09375 110.941406 234.296875 110.589844 Z M 235.304688 105.875 C 235.324219 105.867188 235.339844 105.863281 235.355469 105.855469 C 236.160156 105.46875 236.691406 104.679688 237.320312 104.066406 C 236.570312 105.425781 235.832031 106.792969 235.128906 108.171875 C 235.03125 108.128906 234.925781 108.097656 234.808594 108.078125 C 234.972656 107.34375 235.140625 106.609375 235.304688 105.875 Z M 239.078125 91.527344 C 239.101562 91.625 239.125 91.726562 239.144531 91.828125 C 239.085938 91.859375 239.023438 91.898438 238.96875 91.945312 C 239.007812 91.804688 239.042969 91.667969 239.078125 91.527344 Z M 240.339844 97.632812 C 240.359375 97.742188 240.378906 97.851562 240.398438 97.960938 C 240.285156 97.996094 240.179688 98.042969 240.082031 98.105469 C 240.160156 97.96875 240.25 97.808594 240.339844 97.632812 Z M 231.226562 117.417969 C 231.023438 117.371094 230.824219 117.320312 230.625 117.273438 C 231.058594 117.019531 231.417969 116.59375 231.804688 116.28125 C 231.660156 116.648438 231.414062 117.027344 231.226562 117.417969 Z M 229.984375 111.492188 C 229.984375 111.488281 229.984375 111.480469 229.988281 111.476562 C 229.996094 111.472656 230 111.472656 230.011719 111.46875 C 230 111.476562 229.992188 111.484375 229.984375 111.492188 Z M 228.859375 116.804688 C 228.519531 116.703125 228.179688 116.597656 227.84375 116.484375 C 228.25 116.121094 228.617188 115.683594 229.023438 115.359375 C 228.75 115.773438 228.6875 116.351562 228.859375 116.804688 Z M 225.375 115.574219 C 224.214844 115.09375 223.074219 114.546875 221.9375 113.917969 C 222.652344 113.726562 223.363281 113.523438 224.070312 113.3125 C 223.765625 114.328125 224.222656 115.386719 225.609375 115.027344 C 225.496094 115.195312 225.417969 115.382812 225.375 115.574219 Z M 252.828125 111.628906 C 251.792969 111.316406 250.765625 110.972656 249.703125 110.757812 C 247.96875 110.386719 246.273438 109.855469 244.550781 109.445312 C 244.472656 108.984375 244.394531 108.519531 244.316406 108.054688 C 244.363281 107.730469 244.351562 107.402344 244.246094 107.074219 C 244.207031 106.996094 244.164062 106.921875 244.113281 106.855469 C 243.515625 103.382812 242.878906 99.917969 242.335938 96.4375 C 241.925781 94.820312 240.898438 85.101562 238.070312 87.496094 C 237.21875 88.773438 237.214844 90.46875 236.722656 91.90625 C 236.152344 94.128906 235.441406 96.316406 234.828125 98.527344 C 234.191406 100.835938 233.652344 103.167969 233.152344 105.503906 C 233.136719 106.273438 232.566406 107.460938 232.433594 108.453125 C 232.167969 108.535156 231.929688 108.613281 231.742188 108.671875 C 229.664062 109.3125 227.589844 109.945312 225.515625 110.582031 C 223.953125 111.09375 222.375 111.558594 220.78125 111.972656 C 219.003906 112.222656 217.632812 113.589844 219.367188 115.03125 C 221.675781 116.25 224.015625 117.492188 226.472656 118.390625 C 228.070312 118.917969 229.761719 119.148438 231.324219 119.773438 C 232.316406 125.34375 233.65625 130.828125 235.0625 136.359375 C 235.605469 137.734375 235.394531 140.410156 237.0625 140.886719 C 238.976562 141.042969 239.175781 136.636719 239.8125 135.242188 C 241.171875 130.246094 242.617188 125.261719 243.65625 120.1875 C 244.304688 120.226562 244.945312 119.785156 245.582031 119.65625 C 246.65625 119.308594 247.75 119.019531 248.832031 118.6875 C 250.980469 117.960938 257.011719 116.050781 257.179688 113.523438 C 256.664062 111.8125 254.199219 112.253906 252.828125 111.628906 " fill-opacity="1" fill-rule="nonzero"/></svg>